<mxfile host="app.diagrams.net" modified="2022-04-30T15:35:12.280Z" agent="5.0 (Macintosh; Intel Mac OS X 10_15_7) AppleWebKit/605.1.15 (KHTML, like Gecko) Version/15.3 Safari/605.1.15" etag="30qCM9GD0GG-G1joUoWg" version="17.5.0" type="github">
  <diagram id="LPZCL1bj1sSWu9kygxX8" name="Page-1">
    <mxGraphModel dx="541" dy="385" grid="1" gridSize="10" guides="1" tooltips="1" connect="1" arrows="1" fold="1" page="1" pageScale="1" pageWidth="827" pageHeight="1169" math="0" shadow="0">
      <root>
        <mxCell id="0" />
        <mxCell id="1" parent="0" />
        <mxCell id="qOLf-mq5q5zeJwDgDP6q-23" value="UI" style="swimlane;rounded=1;fontStyle=0" vertex="1" parent="1">
          <mxGeometry x="360" y="80" width="180" height="170" as="geometry" />
        </mxCell>
        <mxCell id="qOLf-mq5q5zeJwDgDP6q-24" value="MobX" style="rounded=1;whiteSpace=wrap;html=1;" vertex="1" parent="qOLf-mq5q5zeJwDgDP6q-23">
          <mxGeometry x="10" y="120" width="160" height="40" as="geometry" />
        </mxCell>
        <mxCell id="qOLf-mq5q5zeJwDgDP6q-13" value="Widget" style="rounded=1;whiteSpace=wrap;html=1;" vertex="1" parent="qOLf-mq5q5zeJwDgDP6q-23">
          <mxGeometry x="10" y="40" width="160" height="40" as="geometry" />
        </mxCell>
        <mxCell id="qOLf-mq5q5zeJwDgDP6q-25" value="" style="edgeStyle=orthogonalEdgeStyle;rounded=1;orthogonalLoop=1;jettySize=auto;html=1;" edge="1" parent="qOLf-mq5q5zeJwDgDP6q-23" source="qOLf-mq5q5zeJwDgDP6q-13" target="qOLf-mq5q5zeJwDgDP6q-24">
          <mxGeometry relative="1" as="geometry" />
        </mxCell>
        <mxCell id="qOLf-mq5q5zeJwDgDP6q-26" value="" style="group" vertex="1" connectable="0" parent="1">
          <mxGeometry x="160" y="80" width="160" height="200" as="geometry" />
        </mxCell>
        <mxCell id="qOLf-mq5q5zeJwDgDP6q-1" value="UI" style="rounded=1;whiteSpace=wrap;html=1;" vertex="1" parent="qOLf-mq5q5zeJwDgDP6q-26">
          <mxGeometry width="160" height="40" as="geometry" />
        </mxCell>
        <mxCell id="qOLf-mq5q5zeJwDgDP6q-2" value="Domain" style="rounded=1;whiteSpace=wrap;html=1;" vertex="1" parent="qOLf-mq5q5zeJwDgDP6q-26">
          <mxGeometry y="80" width="160" height="40" as="geometry" />
        </mxCell>
        <mxCell id="qOLf-mq5q5zeJwDgDP6q-11" value="" style="edgeStyle=orthogonalEdgeStyle;rounded=1;orthogonalLoop=1;jettySize=auto;html=1;" edge="1" parent="qOLf-mq5q5zeJwDgDP6q-26" source="qOLf-mq5q5zeJwDgDP6q-1" target="qOLf-mq5q5zeJwDgDP6q-2">
          <mxGeometry relative="1" as="geometry" />
        </mxCell>
        <mxCell id="qOLf-mq5q5zeJwDgDP6q-3" value="Data" style="rounded=1;whiteSpace=wrap;html=1;" vertex="1" parent="qOLf-mq5q5zeJwDgDP6q-26">
          <mxGeometry y="160" width="160" height="40" as="geometry" />
        </mxCell>
        <mxCell id="qOLf-mq5q5zeJwDgDP6q-12" value="" style="edgeStyle=orthogonalEdgeStyle;rounded=1;orthogonalLoop=1;jettySize=auto;html=1;" edge="1" parent="qOLf-mq5q5zeJwDgDP6q-26" source="qOLf-mq5q5zeJwDgDP6q-2" target="qOLf-mq5q5zeJwDgDP6q-3">
          <mxGeometry relative="1" as="geometry" />
        </mxCell>
        <mxCell id="qOLf-mq5q5zeJwDgDP6q-27" value="Data" style="swimlane;rounded=1;fontStyle=0" vertex="1" parent="1">
          <mxGeometry x="560" y="80" width="180" height="170" as="geometry" />
        </mxCell>
        <mxCell id="qOLf-mq5q5zeJwDgDP6q-28" value="Data Source" style="rounded=1;whiteSpace=wrap;html=1;" vertex="1" parent="qOLf-mq5q5zeJwDgDP6q-27">
          <mxGeometry x="10" y="120" width="160" height="40" as="geometry" />
        </mxCell>
        <mxCell id="qOLf-mq5q5zeJwDgDP6q-29" value="Repository" style="rounded=1;whiteSpace=wrap;html=1;" vertex="1" parent="qOLf-mq5q5zeJwDgDP6q-27">
          <mxGeometry x="10" y="40" width="160" height="40" as="geometry" />
        </mxCell>
        <mxCell id="qOLf-mq5q5zeJwDgDP6q-30" value="" style="edgeStyle=orthogonalEdgeStyle;rounded=1;orthogonalLoop=1;jettySize=auto;html=1;" edge="1" parent="qOLf-mq5q5zeJwDgDP6q-27" source="qOLf-mq5q5zeJwDgDP6q-29" target="qOLf-mq5q5zeJwDgDP6q-28">
          <mxGeometry relative="1" as="geometry" />
        </mxCell>
      </root>
    </mxGraphModel>
  </diagram>
</mxfile>
